<?xml version="1.0" encoding="UTF-8"?>
<svg width="18px" height="18px" viewBox="0 0 18 18" version="1.1" xmlns="http://www.w3.org/2000/svg" xmlns:xlink="http://www.w3.org/1999/xlink">
    <!-- Generator: Sketch 52.5 (67469) - http://www.bohemiancoding.com/sketch -->
    <title>[Icon] Thumbs up</title>
    <desc>Created with Sketch.</desc>
    <g id="FInal-Iterations" stroke="none" stroke-width="1" fill="none" fill-rule="evenodd">
        <g id="[Website]-Business-Banking-03" transform="translate(-1162.000000, -1602.000000)" fill="#000000" fill-rule="nonzero">
            <g id="Group-40" transform="translate(432.000000, 1475.000000)">
                <g id="Group-52-Copy-2" transform="translate(600.000000, 0.000000)">
                    <g id="Group-41" transform="translate(12.000000, 127.000000)">
                        <g id="Group-19" transform="translate(30.000000, 0.000000)">
                            <path d="M103.116586,5.60002783 C103.879357,5.59139066 104.607443,5.91816203 105.108003,6.49380239 C105.608537,7.06943231 105.831039,7.83582536 105.716346,8.59151379 L104.612601,15.7898418 C104.4182,17.0717366 103.309084,18.0144834 102.023927,17.9998964 L92.9999856,18 C92.4476963,18.0000063 91.9999741,17.5522892 91.9999741,17 L91.9999741,8.19995336 C91.9999741,8.06003501 92.0293363,7.92167389 92.0861625,7.79381489 L95.2861418,0.593861534 C95.4466431,0.232733521 95.8047646,0 96.1999534,0 C98.0777106,0 99.5999378,1.52222541 99.5999378,3.39998445 L99.5999378,5.59997792 L103.116586,5.60002783 Z M102.035216,15.9999602 C102.334404,16.0033412 102.590348,15.7857886 102.635458,15.4883432 L103.73922,8.28989906 C103.765636,8.11584921 103.714288,7.93898319 103.598785,7.80615181 C103.483275,7.67331547 103.315254,7.59790644 103.127908,7.59996372 L98.5999378,7.59996372 C98.0476531,7.59996372 97.5999378,7.15224847 97.5999378,6.59996372 L97.5999378,3.39998445 C97.5999378,2.83826445 97.2691155,2.35381082 96.7916793,2.13083104 L93.9999741,8.41216781 L93.9999741,15.9999991 L102.035216,15.9999602 Z M91.9999741,9.19995336 L90.5999896,9.19995336 C90.2686241,9.19995336 90,9.46857747 90,9.79994299 L90,15.3999067 C90,15.7312719 90.2686246,15.9998964 90.5999896,15.9998964 L91.9999741,15.9998964 L91.9999741,9.19995336 Z M92.9999741,17.9998964 L90.5999896,17.9998964 C89.1640552,17.9998964 88,16.8358415 88,15.3999067 L88,9.79994299 C88,8.36400797 89.1640546,7.19995336 90.5999896,7.19995336 L92.9999741,7.19995336 C93.5522588,7.19995336 93.9999741,7.64766861 93.9999741,8.19995336 L93.9999741,16.9998964 C93.9999741,17.5521811 93.5522588,17.9998964 92.9999741,17.9998964 Z" id="[Icon]-Thumbs-up"></path>
                        </g>
                    </g>
                </g>
            </g>
        </g>
    </g>
</svg>